<?xml version="1.0" standalone="no"?>
<!DOCTYPE svg PUBLIC "-//W3C//DTD SVG 20010904//EN"
 "http://www.w3.org/TR/2001/REC-SVG-20010904/DTD/svg10.dtd">
<svg version="1.0" xmlns="http://www.w3.org/2000/svg"
 width="540.000000pt" height="540.000000pt" viewBox="0 0 540.000000 540.000000"
 preserveAspectRatio="xMidYMid meet">
<metadata>
Created by potrace 1.11, written by Peter Selinger 2001-2013
</metadata>
<g transform="translate(0.000000,540.000000) scale(0.100000,-0.100000)"
fill="#000000" stroke="none">
<path d="M0 4706 l0 -214 43 5 c23 3 47 10 53 14 6 5 26 11 45 13 19 2 38 4
42 5 5 0 7 14 6 29 -2 16 4 41 14 55 10 15 14 27 9 27 -15 0 -40 55 -47 103
-5 29 -12 47 -21 47 -7 0 -19 12 -27 28 -7 15 -19 26 -25 25 -7 -2 -12 4 -12
12 0 9 -12 27 -26 40 -53 49 -54 44 -54 -189z"/>
<path d="M200 4540 c0 -5 5 -10 11 -10 5 0 7 5 4 10 -3 6 -8 10 -11 10 -2 0
-4 -4 -4 -10z"/>
<path d="M0 3541 l0 -450 23 -4 22 -4 -22 -2 c-22 -1 -23 -5 -23 -85 l0 -84
30 -7 c17 -4 30 -10 30 -15 0 -4 11 -10 25 -12 26 -5 85 24 85 42 0 13 27 13
36 -1 3 -6 1 -16 -5 -22 -17 -17 -13 -27 11 -27 12 0 19 -2 16 -5 -3 -3 8 -19
25 -36 27 -28 48 -36 150 -56 22 -4 25 -8 16 -19 -9 -12 -2 -14 42 -15 30 -1
68 -5 84 -9 27 -7 26 -8 -17 -10 -62 -3 -65 -4 -74 -12 -4 -5 2 -8 14 -8 12 0
31 -9 42 -20 22 -22 40 -26 40 -10 0 6 5 10 10 10 6 0 10 -8 8 -17 -5 -27 38
-29 52 -3 l12 22 22 -21 c12 -12 26 -21 31 -21 5 0 16 -6 24 -13 9 -8 32 -20
51 -27 45 -17 168 -76 183 -88 7 -5 25 -12 40 -16 16 -4 48 -25 71 -46 35 -33
51 -40 83 -40 36 0 72 -12 125 -41 10 -5 24 -9 31 -9 7 0 24 -11 37 -25 13
-14 29 -25 35 -25 6 0 30 -16 52 -35 23 -19 52 -35 65 -35 12 0 37 -9 53 -20
17 -11 38 -20 48 -20 9 0 17 -4 17 -10 0 -5 12 -10 26 -10 15 0 57 -20 95 -45
38 -25 78 -45 90 -45 12 0 58 -24 103 -53 45 -29 122 -72 171 -96 50 -23 103
-48 118 -56 16 -8 33 -15 39 -15 5 0 30 -13 54 -30 25 -16 66 -38 92 -49 26
-10 86 -35 134 -55 47 -20 93 -36 100 -36 7 0 36 -8 63 -18 35 -13 59 -16 80
-10 23 6 36 3 55 -12 52 -41 143 -61 158 -34 13 23 112 23 112 0 0 -45 175
-96 254 -74 24 6 39 2 75 -20 46 -27 46 -27 266 -30 121 -1 249 -3 285 -4 36
-1 79 -1 95 0 17 1 55 2 84 3 30 0 60 3 65 7 12 7 36 9 236 16 181 6 459 49
478 73 6 9 12 22 12 27 1 6 2 76 3 156 2 162 -1 157 77 123 19 -9 42 -15 50
-14 8 2 12 0 8 -4 -4 -4 7 -19 24 -34 27 -22 44 -27 122 -32 74 -6 94 -4 108
8 9 8 22 12 27 8 17 -10 13 -33 -6 -44 -10 -5 -15 -13 -11 -16 4 -4 14 0 23 9
9 9 21 16 26 16 5 0 9 351 9 890 l0 890 -68 -5 c-37 -2 -125 -7 -197 -11 -71
-4 -152 -9 -180 -12 -27 -2 -67 -4 -87 -4 -21 0 -38 -4 -38 -9 0 -9 41 -14 88
-11 12 0 20 -2 18 -6 -2 -4 41 -9 97 -11 56 -2 111 -4 122 -4 11 -1 35 2 53 6
17 3 32 2 32 -3 0 -16 -43 -23 -130 -23 -47 0 -70 -2 -52 -4 37 -5 34 -23 -4
-23 -13 0 -24 -4 -24 -10 0 -5 5 -10 11 -10 8 0 8 -5 -1 -15 -10 -13 -9 -15 9
-15 13 0 21 -6 21 -16 0 -15 -2 -15 -25 0 -31 20 -45 20 -45 0 0 -14 -2 -15
-17 -3 -10 8 -14 9 -10 2 14 -22 -12 -23 -28 -1 l-17 23 7 -22 c6 -20 3 -23
-24 -23 -16 0 -37 7 -45 16 -9 8 -21 12 -27 8 -8 -4 -7 -9 2 -16 10 -7 1 -8
-27 -5 -22 3 -54 -1 -71 -8 -32 -13 -60 -5 -49 14 10 16 -3 14 -20 -4 -9 -8
-24 -15 -35 -15 -10 0 -19 -4 -19 -9 0 -5 -3 -16 -6 -25 -8 -21 19 -21 40 -1
18 18 52 9 36 -10 -5 -6 -7 -15 -4 -18 4 -3 -4 -8 -17 -11 -33 -7 -89 -4 -89
4 0 10 -109 35 -117 27 -3 -4 8 -10 25 -13 32 -6 72 -39 41 -33 -7 1 -27 -3
-42 -9 -16 -7 -35 -12 -43 -12 -17 0 -19 -16 -2 -26 6 -4 8 -3 5 3 -4 6 4 11
18 11 15 0 22 -5 18 -12 -3 -6 3 -3 14 7 25 22 41 6 17 -17 -18 -19 -44 -21
-44 -4 0 6 -3 8 -6 5 -4 -4 -1 -13 6 -22 19 -23 -3 -18 -30 8 -14 12 -28 21
-32 20 -5 -2 -7 36 -6 85 1 81 2 83 8 32 6 -46 7 -49 8 -17 2 40 4 42 33 27
13 -7 19 -7 19 0 0 5 -7 10 -16 10 -11 0 -14 5 -9 18 3 9 7 19 8 22 1 3 -4 20
-11 38 -9 27 -16 33 -34 30 -20 -3 -23 -10 -25 -48 -1 -25 -4 -79 -7 -120 -3
-41 -5 -107 -5 -147 l-1 -71 -35 2 c-20 2 -38 -1 -41 -5 -8 -14 -24 -10 -24 6
0 9 -9 15 -25 15 -14 0 -25 -6 -25 -12 0 -18 -45 -37 -62 -27 -11 7 -11 9 0 9
7 0 20 7 28 15 14 13 13 15 -4 15 -11 0 -25 -7 -32 -15 -7 -8 -21 -15 -32 -15
-10 0 -17 -4 -13 -10 3 -5 12 -7 20 -3 8 3 15 1 15 -5 0 -5 9 -12 20 -15 12
-3 20 -14 20 -26 0 -12 6 -21 13 -22 6 0 2 -5 -10 -11 -28 -14 -30 -32 -3 -25
24 6 27 -8 3 -18 -10 -3 -19 -1 -21 4 -5 14 -32 14 -32 1 0 -5 -9 -10 -19 -10
-11 0 -23 -4 -26 -10 -3 -5 -21 -10 -40 -10 -19 0 -37 5 -40 10 -9 14 -47 12
-86 -5 l-34 -14 31 -1 c20 0 34 -6 38 -16 10 -25 7 -34 -11 -34 -9 0 -14 3
-10 6 11 11 -17 30 -48 32 -23 1 -26 -1 -15 -8 13 -9 7 -14 -12 -11 -5 0 -8
-4 -8 -9 0 -6 -4 -10 -10 -10 -5 0 -10 7 -10 15 0 8 -4 15 -10 15 -15 0 -12
30 4 36 8 3 24 1 35 -6 12 -6 21 -7 21 -2 0 10 61 41 119 58 42 13 46 13 68
-8 13 -12 23 -16 23 -10 0 7 9 12 19 12 30 0 51 11 51 26 0 8 -5 14 -11 14 -5
0 -7 5 -4 10 8 13 -1 13 -24 0 -20 -10 -81 -21 -123 -22 -16 -1 -25 -5 -21
-11 4 -7 -11 -8 -43 -4 -56 6 -78 -2 -68 -26 8 -23 -12 -22 -28 1 -7 10 -26
22 -43 26 -22 6 -27 5 -19 -4 6 -6 18 -12 25 -13 8 -2 15 -7 16 -12 2 -6 -17
-9 -43 -7 -32 3 -51 -1 -64 -13 -14 -13 -23 -14 -38 -6 -14 7 -24 6 -40 -5
-12 -8 -26 -12 -32 -9 -5 3 -19 1 -31 -5 -11 -6 -28 -8 -37 -4 -9 4 -22 6 -28
6 -6 -1 -11 4 -11 10 0 8 15 14 38 14 20 1 45 7 55 14 16 9 11 10 -25 5 -27
-3 -47 -2 -51 5 -9 15 -42 1 -36 -15 5 -15 -14 -25 -47 -25 -18 0 -19 2 -7 11
12 8 12 12 2 16 -10 4 -10 8 -1 19 6 8 15 12 19 9 5 -3 11 -2 14 3 2 4 -26 7
-64 7 -37 0 -63 -3 -57 -7 12 -7 -17 -16 -70 -22 -18 -2 -40 -9 -48 -16 -21
-18 -31 -5 -11 15 9 9 16 18 16 21 0 9 -26 2 -45 -12 -17 -13 -18 -16 -5 -25
12 -8 12 -10 -5 -8 -48 4 -86 -2 -80 -11 4 -6 -9 -10 -31 -10 -66 0 -24 -18
78 -35 97 -15 158 -17 158 -4 0 4 -6 9 -12 12 -7 2 5 4 27 4 22 -1 49 3 59 8
13 5 17 5 13 -2 -4 -6 9 -13 33 -17 48 -7 63 -26 21 -26 -16 0 -33 -5 -36 -11
-9 -14 -7 -15 37 -22 34 -5 37 -4 43 24 5 20 13 29 26 29 10 0 19 -7 19 -15 0
-9 6 -12 17 -8 11 4 14 3 9 -5 -4 -7 -19 -12 -33 -12 -38 0 -24 -8 24 -13 23
-3 46 -8 52 -11 5 -3 11 -2 13 3 1 5 23 10 48 11 72 3 90 1 90 -11 0 -7 -20
-10 -55 -7 -67 4 -73 -8 -7 -15 26 -3 74 -10 108 -15 89 -14 140 -51 72 -53
-18 0 -42 -5 -53 -10 -13 -6 10 -7 65 -2 47 4 113 8 148 8 66 0 76 5 40 23
-23 10 -23 11 5 11 17 1 27 -4 27 -13 0 -17 31 -29 52 -21 9 4 18 -1 21 -10 5
-11 14 -14 31 -9 13 3 27 1 30 -5 9 -14 81 -14 107 -1 11 6 19 21 19 35 0 14
5 25 10 25 6 0 10 -7 10 -15 0 -8 4 -15 9 -15 5 0 10 33 9 73 0 163 2 191 13
180 10 -10 18 -121 19 -259 0 -57 12 -69 56 -58 20 5 22 9 13 20 -6 8 -11 32
-11 54 1 24 -4 40 -11 40 -9 0 -9 2 -1 8 7 4 11 50 10 132 -1 131 -10 159 -49
152 -9 -2 -17 1 -17 7 0 6 12 11 28 10 15 0 37 2 50 6 14 5 22 3 22 -5 0 -7
-7 -10 -15 -6 -8 3 -15 1 -15 -5 0 -13 20 -34 40 -42 11 -4 9 -6 -5 -6 -19 -1
-20 -8 -19 -104 2 -182 2 -184 24 -190 24 -6 26 -20 5 -41 -19 -19 -19 -40 0
-32 8 3 21 -4 29 -16 12 -16 26 -21 77 -22 56 -2 63 -4 66 -24 1 -12 -2 -22
-7 -22 -6 0 -10 5 -10 10 0 6 -8 10 -17 10 -15 0 -16 -2 -3 -10 8 -5 11 -12 7
-16 -4 -4 -15 0 -24 8 -22 19 -63 30 -63 16 0 -24 23 -48 45 -48 14 0 29 -8
35 -21 11 -19 10 -20 -9 -9 -17 9 -21 8 -21 -5 0 -8 -9 -15 -19 -15 -12 0 -21
-9 -25 -26 -4 -14 -12 -24 -19 -21 -7 2 -25 0 -41 -4 -16 -5 -70 -8 -120 -8
-161 1 -156 1 -156 21 0 10 -7 18 -15 18 -8 0 -15 -9 -15 -19 0 -29 -14 -33
-33 -11 -23 27 -11 53 19 46 28 -7 33 11 7 21 -10 3 -30 15 -45 25 -34 24 -35
23 -31 -14 l3 -33 -13 26 c-6 14 -18 33 -25 42 -13 15 -16 15 -39 0 -18 -12
-21 -18 -11 -25 10 -6 6 -14 -15 -33 -15 -14 -31 -25 -35 -25 -14 1 -39 69
-29 79 7 7 1 10 -19 8 -16 -1 -32 -9 -36 -19 -5 -12 -15 -15 -33 -12 -15 2
-52 0 -83 -5 -111 -19 -185 -24 -178 -12 4 6 0 11 -9 11 -9 0 -15 -6 -13 -12
3 -7 -1 -18 -8 -25 -19 -19 -5 -53 22 -53 12 0 25 4 29 10 3 5 12 7 20 3 9 -3
28 0 43 6 15 6 47 14 72 16 25 3 56 7 70 9 14 2 33 4 44 4 12 1 16 7 12 17 -3
8 -1 15 4 15 6 0 10 -4 10 -10 0 -5 9 -10 20 -10 11 0 20 -7 20 -15 0 -8 9
-23 21 -34 12 -11 16 -21 10 -25 -5 -4 -12 -2 -16 4 -4 6 -11 7 -17 4 -7 -4
-8 -2 -4 4 4 7 1 12 -8 12 -9 0 -16 -7 -16 -15 0 -12 -16 -15 -82 -16 -216 -1
-248 -6 -261 -43 -7 -22 -215 -4 -651 55 -99 13 -222 36 -286 54 -30 9 -75 17
-100 19 -92 7 -428 103 -458 130 -15 13 -25 17 -30 10 -7 -11 -42 -2 -277 70
-44 14 -124 37 -179 51 -111 29 -370 111 -401 126 -12 6 -45 14 -75 19 -52 7
-283 71 -325 89 -11 5 -40 14 -65 21 -25 7 -58 19 -75 28 -16 9 -40 15 -52 13
-32 -4 -45 7 -34 28 5 9 6 23 1 31 -12 20 0 42 19 35 12 -5 13 -3 4 5 -13 14
-93 4 -93 -11 0 -4 7 -6 15 -3 8 4 15 1 15 -5 0 -16 -30 -13 -36 3 -3 8 -12
12 -20 9 -8 -3 -14 1 -14 11 0 9 -8 16 -17 16 -15 0 -16 2 -3 10 9 6 18 6 24
0 18 -18 44 -10 50 15 4 17 13 25 29 25 17 0 22 6 24 30 2 33 0 35 -28 20 -22
-12 -24 -4 -7 33 15 32 24 34 33 7 12 -38 20 -20 20 47 l0 68 -60 10 c-51 8
-60 13 -63 33 -3 22 -2 22 120 22 166 0 258 9 258 26 0 20 -21 28 -31 13 -7
-10 -11 -11 -17 -2 -5 8 -62 11 -192 11 -102 0 -214 4 -250 9 l-65 9 70 9 c39
5 150 9 247 8 98 -1 180 2 183 7 3 5 1 19 -3 32 -5 12 -6 34 -2 48 6 23 8 21
14 -15 14 -75 14 -75 43 -64 15 5 30 6 37 1 6 -5 23 -12 39 -14 22 -4 27 -2
28 16 4 89 4 106 -3 106 -15 0 -8 19 14 40 28 26 34 25 42 -5 4 -14 10 -25 15
-25 5 0 7 -9 4 -20 -3 -13 0 -20 8 -20 10 0 10 -3 1 -12 -8 -8 -8 -16 0 -32 6
-12 11 -23 10 -26 -2 -5 80 -6 421 -2 153 2 217 5 207 12 -11 8 2 9 43 7 32
-2 60 0 63 4 3 5 23 9 45 9 21 0 39 5 39 10 0 6 13 10 30 10 23 0 28 3 23 17
-5 13 -3 15 12 9 11 -4 16 -4 12 0 -4 4 -2 13 4 21 9 11 1 13 -47 13 -33 1
-129 3 -214 6 -85 2 -227 6 -315 9 -88 2 -173 6 -190 9 -16 2 -38 4 -47 5 -23
1 -24 31 -1 31 14 0 15 2 4 13 -11 10 -14 10 -18 0 -8 -22 -32 -14 -39 12 -4
18 -11 24 -23 21 -39 -12 -80 -15 -86 -7 -3 5 -1 12 5 16 14 8 3 25 -16 25
-10 0 -14 -8 -12 -22 3 -20 -1 -23 -32 -23 -47 0 -55 -31 -11 -46 34 -12 36
-16 21 -39 -9 -13 -12 -13 -23 0 -6 8 -30 16 -53 18 -34 2 -43 -2 -52 -20 -6
-13 -11 -17 -11 -9 -1 11 -5 10 -21 -4 -17 -15 -22 -16 -37 -4 -15 12 -16 12
-10 -3 5 -13 1 -18 -13 -18 -13 0 -18 5 -14 15 5 11 -2 15 -27 15 -18 0 -41 7
-51 16 -14 14 -21 14 -32 4 -13 -10 -16 -7 -22 14 -5 21 -11 25 -28 20 -20 -6
-20 -5 2 11 12 9 22 22 21 28 -1 7 2 21 6 33 5 16 13 20 31 16 17 -3 24 0 24
11 0 16 -54 37 -94 37 -11 0 -16 5 -13 14 6 16 -62 46 -106 46 -15 0 -46 4
-69 10 -55 12 -265 40 -301 40 l-27 0 0 -449z m349 215 c8 -10 9 -16 1 -21
-12 -7 -42 19 -33 29 10 10 20 7 32 -8z m726 -26 c-3 -5 -21 -10 -38 -10 -24
0 -28 3 -17 10 20 13 63 13 55 0z m-187 -41 c-2 -6 -8 -10 -13 -10 -5 0 -11 4
-13 10 -2 6 4 11 13 11 9 0 15 -5 13 -11z m1002 -39 c0 -5 -4 -10 -10 -10 -5
0 -10 5 -10 10 0 6 5 10 10 10 6 0 10 -4 10 -10z m3420 -150 c0 -5 -12 -10
-27 -9 -25 0 -26 1 -8 9 27 12 35 12 35 0z m-196 -92 c6 -4 8 -10 4 -13 -9
-10 -39 26 -31 38 4 7 8 6 11 -3 3 -8 10 -18 16 -22z m-324 -62 c0 -3 -4 -8
-10 -11 -5 -3 -10 -1 -10 4 0 6 5 11 10 11 6 0 10 -2 10 -4z m-60 -56 c0 -5
-7 -10 -15 -10 -8 0 -15 5 -15 10 0 6 7 10 15 10 8 0 15 -4 15 -10z m-145 -86
c-13 -10 -20 -10 -30 -1 -7 7 -10 16 -7 22 3 5 7 4 10 -3 2 -7 8 -12 14 -12 6
0 7 7 4 16 -6 15 -4 15 10 3 14 -12 14 -14 -1 -25z m75 22 c0 -3 -4 -8 -10
-11 -5 -3 -10 -1 -10 4 0 6 5 11 10 11 6 0 10 -2 10 -4z m-4240 -26 c0 -5 -9
-10 -21 -10 -11 0 -17 5 -14 10 3 6 13 10 21 10 8 0 14 -4 14 -10z m4011 -23
c27 7 24 -12 -6 -31 l-25 -16 1 42 c1 24 4 33 6 22 3 -16 9 -20 24 -17z m115
11 c5 -7 3 -8 -6 -3 -9 5 -11 4 -6 -3 4 -7 15 -12 24 -12 21 0 24 -37 4 -45
-7 -2 -11 -1 -9 3 6 9 -39 52 -47 45 -3 -4 -6 -1 -6 5 0 6 8 13 18 15 9 3 18
5 19 6 1 0 5 -4 9 -11z m-56 -27 c0 -12 -20 -25 -27 -18 -7 7 6 27 18 27 5 0
9 -4 9 -9z m164 -30 c-2 -2 -10 2 -19 9 -10 8 -15 9 -15 1 0 -6 -8 -11 -17
-11 -15 0 -14 2 3 19 17 17 20 17 35 2 9 -9 15 -18 13 -20z m154 -6 c-7 -7
-67 8 -63 16 3 4 19 3 36 -3 16 -6 29 -12 27 -13z m-358 -15 c-8 -5 -19 -10
-25 -10 -5 0 -3 5 5 10 8 5 20 10 25 10 6 0 3 -5 -5 -10z m85 0 c3 -6 -1 -7
-9 -4 -18 7 -21 14 -7 14 6 0 13 -4 16 -10z m90 0 c-3 -5 -10 -10 -16 -10 -5
0 -9 5 -9 10 0 6 7 10 16 10 8 0 12 -4 9 -10z m-215 -10 c0 -5 -4 -10 -10 -10
-5 0 -10 5 -10 10 0 6 5 10 10 10 6 0 10 -4 10 -10z m-3855 -20 c3 -5 1 -10
-4 -10 -6 0 -11 5 -11 10 0 6 2 10 4 10 3 0 8 -4 11 -10z m-275 -27 c0 -16
165 -19 217 -4 l32 9 5 -56 c4 -32 13 -85 21 -119 18 -75 18 -70 -1 -77 -19
-7 -42 14 -36 34 4 12 2 13 -9 4 -8 -7 -29 -15 -46 -19 -28 -5 -32 -4 -27 9 3
9 1 16 -6 16 -6 0 -18 6 -25 14 -13 12 -105 31 -132 27 -7 -1 -13 3 -13 9 0 5
-6 10 -14 10 -8 0 -16 7 -19 14 -3 8 -22 18 -41 21 -30 6 -33 9 -21 21 7 8 23
14 34 14 11 0 22 4 25 9 3 4 -12 5 -34 1 -22 -4 -40 -3 -40 1 0 5 7 9 15 9 8
0 15 5 15 10 0 6 -17 10 -37 10 -21 0 -45 5 -53 10 -11 7 4 10 48 10 40 0 61
-4 57 -10 -3 -5 -2 -10 2 -10 5 0 14 9 20 19 10 15 10 21 0 24 -7 3 5 5 26 4
24 0 37 -5 37 -14z m4056 -4 c3 -5 -16 -9 -43 -9 l-48 -1 30 -14 c27 -12 28
-13 7 -14 -13 -1 -20 -5 -17 -11 4 -6 -6 -7 -27 -3 -44 8 -45 9 -17 33 23 20
23 21 2 10 -19 -9 -23 -8 -23 4 0 23 122 27 136 5z m201 -5 c-3 -3 -12 -4 -19
-1 -8 3 -5 6 6 6 11 1 17 -2 13 -5z m-202 -52 c-3 -3 -11 0 -18 7 -9 10 -8 11
6 5 10 -3 15 -9 12 -12z m-421 -37 c4 -10 -1 -15 -14 -15 -11 0 -20 7 -20 15
0 8 6 15 14 15 8 0 16 -7 20 -15z m369 -2 c-4 -11 -8 -12 -11 -5 -2 7 -11 12
-19 12 -9 0 -13 -6 -9 -15 4 -10 -1 -15 -15 -15 -16 0 -19 -4 -14 -20 5 -14 2
-20 -9 -20 -21 0 -20 6 5 46 16 26 28 34 50 34 23 0 27 -3 22 -17z m280 10
c-7 -2 -21 -2 -30 0 -10 3 -4 5 12 5 17 0 24 -2 18 -5z m-1163 -19 c0 -2 -7
-4 -15 -4 -8 0 -15 4 -15 10 0 5 7 7 15 4 8 -4 15 -8 15 -10z m965 6 c-3 -5
-18 -10 -33 -9 l-27 1 25 8 c35 11 42 11 35 0z m328 3 c-7 -2 -19 -2 -25 0 -7
3 -2 5 12 5 14 0 19 -2 13 -5z m107 -13 c0 -5 -7 -10 -16 -10 -8 0 -12 5 -9
10 3 6 10 10 16 10 5 0 9 -4 9 -10z m-436 -22 c-7 -11 -72 -10 -78 1 -3 5 14
8 38 8 24 -1 42 -5 40 -9z m-567 -4 c-3 -3 -12 -4 -19 -1 -8 3 -5 6 6 6 11 1
17 -2 13 -5z m663 -4 c0 -5 -5 -10 -11 -10 -5 0 -7 5 -4 10 3 6 8 10 11 10 2
0 4 -4 4 -10z m110 0 c0 -5 -10 -10 -22 -9 -22 0 -22 1 -3 9 11 5 21 9 23 9 1
1 2 -3 2 -9z m-890 -10 c0 -5 -5 -10 -11 -10 -5 0 -7 5 -4 10 3 6 8 10 11 10
2 0 4 -4 4 -10z m445 -10 c3 -5 -1 -10 -9 -10 -9 0 -16 5 -16 10 0 6 4 10 9
10 6 0 13 -4 16 -10z m575 0 c0 -5 -7 -10 -16 -10 -8 0 -12 5 -9 10 3 6 10 10
16 10 5 0 9 -4 9 -10z m-1220 -10 c0 -5 -4 -10 -10 -10 -5 0 -10 5 -10 10 0 6
5 10 10 10 6 0 10 -4 10 -10z m532 -4 c15 -11 14 -13 -15 -13 -18 0 -26 2 -19
5 6 2 10 8 6 13 -8 13 8 11 28 -5z m252 -2 c3 -8 2 -12 -4 -9 -6 3 -10 10 -10
16 0 14 7 11 14 -7z m-1077 0 c-3 -3 -12 -4 -19 -1 -8 3 -5 6 6 6 11 1 17 -2
13 -5z m396 -11 c-7 -2 -19 -2 -25 0 -7 3 -2 5 12 5 14 0 19 -2 13 -5z m644 1
c-3 -3 -12 -4 -19 -1 -8 3 -5 6 6 6 11 1 17 -2 13 -5z m-542 -14 c4 -6 -7 -10
-25 -10 -18 0 -29 4 -25 10 3 6 15 10 25 10 10 0 22 -4 25 -10z m435 1 c0 -19
-73 -30 -85 -12 -5 9 18 15 68 20 9 0 17 -3 17 -8z m-306 -16 c4 -10 -1 -15
-14 -15 -20 0 -26 11 -13 23 10 11 20 8 27 -8z m94 -3 c-10 -2 -18 -8 -18 -13
0 -5 -9 -9 -20 -9 -11 0 -20 5 -20 10 0 6 9 10 20 10 11 0 20 4 20 10 0 5 8 6
18 2 16 -6 16 -7 0 -10z m97 8 c3 -5 1 -10 -4 -10 -6 0 -11 5 -11 10 0 6 2 10
4 10 3 0 8 -4 11 -10z m162 4 c-3 -3 -12 -4 -19 -1 -8 3 -5 6 6 6 11 1 17 -2
13 -5z m106 -1 c-7 -2 -19 -2 -25 0 -7 3 -2 5 12 5 14 0 19 -2 13 -5z m-183
-32 c0 -5 -9 -7 -20 -4 -11 3 -20 7 -20 9 0 2 9 4 20 4 11 0 20 -4 20 -9z
m-240 -21 c0 -5 8 -11 18 -13 9 -3 -8 -3 -38 0 -61 6 -64 8 -57 20 7 11 77 4
77 -7z m363 13 c-7 -2 -19 -2 -25 0 -7 3 -2 5 12 5 14 0 19 -2 13 -5z m151 -8
c-4 -8 -12 -15 -20 -15 -20 0 -17 18 4 23 9 3 18 5 19 6 1 0 0 -6 -3 -14z
m-61 -2 c-7 -2 -19 -2 -25 0 -7 3 -2 5 12 5 14 0 19 -2 13 -5z m-118 -53 c25
-6 20 -8 -27 -9 -33 0 -58 3 -58 9 0 11 40 11 85 0z m-260 -10 c3 -5 -1 -10
-9 -10 -9 0 -16 5 -16 10 0 6 4 10 9 10 6 0 13 -4 16 -10z m85 6 c0 -3 -4 -8
-10 -11 -5 -3 -10 -1 -10 4 0 6 5 11 10 11 6 0 10 -2 10 -4z m290 -6 c-20 -13
-33 -13 -25 0 3 6 14 10 23 10 15 0 15 -2 2 -10z m-20 -34 c0 -3 -4 -8 -10
-11 -5 -3 -10 -1 -10 4 0 6 5 11 10 11 6 0 10 -2 10 -4z m-3680 -26 c0 -5 -4
-10 -10 -10 -5 0 -10 5 -10 10 0 6 5 10 10 10 6 0 10 -4 10 -10z m3860 0 c0
-5 -4 -10 -10 -10 -5 0 -10 5 -10 10 0 6 5 10 10 10 6 0 10 -4 10 -10z m258
-29 c26 -22 28 -31 7 -31 -8 0 -19 9 -25 19 -19 36 -13 40 18 12z m-3551 -38
c-3 -10 -5 -2 -5 17 0 19 2 27 5 18 2 -10 2 -26 0 -35z m3647 5 c20 -28 12
-36 -13 -14 -17 16 -19 16 -23 -2 -3 -11 -1 -28 4 -38 9 -19 9 -19 -6 0 -8 10
-13 22 -11 27 3 4 1 10 -5 14 -22 13 -9 27 32 34 4 0 14 -9 22 -21z m-192 -53
c0 -5 -5 -11 -11 -13 -6 -2 -11 4 -11 13 0 9 5 15 11 13 6 -2 11 -8 11 -13z
m628 5 c13 -8 12 -11 -5 -24 -26 -20 -27 -20 -49 5 -12 15 -26 20 -47 17 -16
-3 -29 -1 -29 4 0 11 112 10 130 -2z m-412 -34 c-10 -8 -12 -21 -7 -43 7 -36
-2 -44 -44 -36 -28 6 -36 18 -15 25 18 6 0 28 -23 28 -11 0 -29 5 -41 11 -19
10 -19 11 7 25 28 15 45 11 45 -9 0 -7 9 -18 20 -25 11 -7 20 -19 20 -27 0 -8
5 -15 10 -15 14 0 12 43 -2 59 -10 11 -10 13 0 7 8 -5 12 0 12 15 0 18 2 20
16 8 13 -11 14 -15 2 -23z m92 24 c10 -6 11 -10 3 -10 -7 0 -13 -5 -13 -11 0
-6 9 -8 20 -4 21 7 60 -2 60 -13 0 -4 -20 -8 -45 -8 -39 -1 -45 1 -45 18 0 15
-5 19 -20 15 -11 -3 -20 -1 -20 3 0 7 13 13 40 19 3 0 12 -4 20 -9z m138 -22
c9 -9 12 -9 12 1 0 10 9 12 38 6 40 -7 73 -13 85 -14 4 -1 7 -5 7 -10 0 -12
-35 -24 -73 -26 -22 -1 -26 2 -21 17 3 12 0 18 -10 18 -9 0 -16 -4 -16 -10 0
-5 -7 -10 -15 -10 -8 0 -15 5 -15 10 0 6 -4 10 -10 10 -5 0 -7 -13 -5 -30 3
-30 3 -30 -43 -30 -26 0 -70 -3 -97 -6 l-51 -6 2 28 c1 16 3 30 3 32 1 2 8 -4
17 -13 23 -22 144 -18 144 6 0 15 18 39 30 39 3 0 11 -5 18 -12z m-973 -28
c-3 -5 -1 -11 4 -14 5 -3 18 -22 30 -41 l20 -35 -23 6 c-13 3 -26 1 -30 -4 -5
-9 -56 -5 -56 5 0 3 11 18 24 34 16 19 22 36 19 50 -4 15 -3 20 6 15 6 -4 9
-11 6 -16z m630 -30 c6 -1 -3 -6 -19 -10 -16 -5 -34 -7 -39 -3 -13 8 12 22 32
18 9 -2 21 -4 26 -5z m365 6 c0 -2 -7 -6 -15 -10 -8 -3 -15 -1 -15 4 0 6 7 10
15 10 8 0 15 -2 15 -4z m-160 -70 c0 -3 -4 -8 -10 -11 -5 -3 -10 -1 -10 4 0 6
5 11 10 11 6 0 10 -2 10 -4z m-315 -26 c3 -5 1 -10 -4 -10 -6 0 -11 5 -11 10
0 6 2 10 4 10 3 0 8 -4 11 -10z m55 0 c0 -5 -4 -10 -10 -10 -5 0 -10 5 -10 10
0 6 5 10 10 10 6 0 10 -4 10 -10z m-320 -20 c0 -5 -4 -10 -10 -10 -5 0 -10 5
-10 10 0 6 5 10 10 10 6 0 10 -4 10 -10z m-348 -372 c-5 -5 -18 -8 -28 -5 -15
4 -14 5 4 6 15 1 21 5 16 13 -5 7 -3 8 5 3 8 -5 9 -11 3 -17z"/>
<path d="M258 3023 c-10 -2 -18 -9 -18 -14 0 -14 16 -11 30 6 7 8 11 14 9 14
-2 -1 -12 -3 -21 -6z"/>
<path d="M285 3006 c-18 -13 -18 -14 8 -9 15 3 24 9 21 14 -7 12 -7 12 -29 -5z"/>
<path d="M4080 2446 c0 -2 7 -6 15 -10 8 -3 15 -1 15 4 0 6 -7 10 -15 10 -8 0
-15 -2 -15 -4z"/>
<path d="M697 3854 c-8 -8 1 -24 14 -24 5 0 9 7 9 15 0 15 -12 20 -23 9z"/>
<path d="M761 3805 c-1 -13 19 -35 31 -35 4 0 8 7 8 16 0 10 -6 14 -14 11 -8
-3 -17 -1 -20 6 -2 7 -5 7 -5 2z"/>
<path d="M991 3673 c7 -10 15 -20 16 -22 2 -2 3 5 3 17 0 14 -6 22 -16 22 -14
0 -15 -3 -3 -17z"/>
<path d="M1983 3673 c9 -2 23 -2 30 0 6 3 -1 5 -18 5 -16 0 -22 -2 -12 -5z"/>
<path d="M1180 3513 c0 -21 109 -21 122 0 6 9 8 9 8 0 0 -10 30 -13 118 -13
115 0 118 0 118 -22 0 -30 -12 -38 -63 -38 l-43 0 0 -50 c0 -27 5 -50 10 -50
6 0 10 -9 10 -20 0 -11 -5 -20 -11 -20 -15 0 -4 -71 13 -81 15 -9 31 -1 23 12
-4 5 3 9 15 9 12 0 18 -4 15 -10 -3 -5 -1 -19 5 -30 10 -18 8 -20 -21 -20 -29
0 -58 -21 -59 -42 0 -14 28 -8 34 7 3 8 10 15 16 15 5 0 10 -7 10 -15 0 -8 3
-15 8 -16 77 -7 108 -12 112 -19 3 -4 32 -10 65 -14 33 -3 80 -8 105 -12 32
-4 41 -2 30 5 -22 15 -9 19 40 11 l45 -7 -32 -8 c-18 -4 -33 -11 -33 -15 0 -9
77 -11 105 -2 19 5 18 6 -4 12 -14 3 -26 11 -27 18 -1 7 0 8 3 2 3 -7 12 -5
24 6 12 11 27 14 45 10 25 -7 26 -8 9 -26 -20 -22 -17 -23 40 -22 17 1 17 0 3
-4 -10 -3 -18 -10 -18 -15 0 -14 57 -11 72 5 8 7 24 17 36 20 12 4 22 11 22
16 0 5 6 7 14 4 15 -6 19 -54 5 -54 -5 0 -9 5 -9 12 0 9 -3 9 -12 0 -7 -7 -23
-12 -36 -12 -14 0 -21 -4 -16 -11 4 -8 34 -10 86 -7 43 3 74 2 68 -2 -7 -5 -4
-9 9 -13 12 -3 19 -2 16 2 -7 12 42 31 78 31 30 -1 31 -1 13 -15 -19 -14 -18
-15 15 -15 38 0 92 29 56 30 -11 0 -15 4 -11 11 5 9 -19 11 -89 7 -74 -4 -100
-2 -108 8 -6 8 -8 15 -3 16 36 6 80 9 146 9 65 1 76 3 71 16 -5 13 -21 15 -95
11 -79 -5 -88 -4 -88 12 0 13 -6 16 -25 12 -28 -5 -34 -22 -7 -23 12 0 10 -3
-7 -10 -27 -11 -51 -6 -51 11 0 5 7 10 15 10 8 0 15 5 15 10 0 9 -65 8 -117
-1 -22 -4 -53 2 -53 10 0 5 9 7 20 4 11 -3 20 -1 20 5 0 6 10 8 23 5 20 -4 20
-3 4 7 -11 7 -51 10 -102 8 -47 -2 -85 0 -85 4 0 4 -15 12 -32 17 l-33 9 32 7
c18 4 31 11 28 15 -2 4 13 7 34 7 29 0 38 -3 34 -13 -3 -8 -11 -14 -19 -14 -8
0 -14 -4 -14 -10 0 -16 14 -12 38 10 12 11 25 20 31 20 5 0 11 7 15 15 4 12
-3 15 -34 15 -21 0 -42 -5 -45 -11 -5 -7 -13 -5 -24 5 -14 13 -71 22 -169 25
-13 1 -21 5 -18 10 3 5 -3 11 -14 14 -22 6 -28 -8 -7 -16 6 -3 0 -6 -14 -6
-33 -1 -46 26 -22 44 13 10 21 10 31 2 10 -8 16 -7 22 2 4 8 13 10 20 6 9 -6
9 -10 -1 -17 -9 -6 -2 -7 21 -2 19 4 43 7 52 6 10 0 20 3 23 8 3 5 11 8 18 7
7 -2 2 1 -10 7 -13 5 -23 13 -23 18 0 4 -12 8 -27 8 -25 -1 -26 -2 -9 -11 15
-9 16 -13 5 -20 -23 -14 -39 -10 -39 10 0 27 -35 32 -64 10 -24 -19 -45 -11
-31 11 3 6 -3 10 -14 10 -12 0 -21 -6 -21 -14 0 -15 -48 -28 -52 -14 -2 4 -20
9 -41 10 -29 1 -37 5 -37 20 0 19 15 24 25 8 3 -5 11 -10 16 -10 6 0 7 5 4 10
-4 6 8 10 30 10 22 0 34 -4 30 -10 -7 -11 6 -13 29 -4 9 3 16 12 16 20 0 10
14 13 51 12 34 0 54 4 60 13 8 12 11 12 19 -1 8 -13 11 -13 22 3 11 15 20 16
61 8 26 -4 47 -5 47 -1 0 13 98 22 265 25 88 2 168 7 178 11 10 3 30 4 45 1
15 -3 34 -2 41 3 14 8 7 30 -10 30 -6 0 -7 -4 -4 -10 8 -13 -8 -13 -22 1 -6 6
-13 7 -16 2 -7 -11 -149 -5 -157 6 -6 9 -159 12 -667 15 -308 1 -383 -1 -383
-11z m300 -128 c0 -8 -4 -15 -10 -15 -5 0 -7 7 -4 15 4 8 8 15 10 15 2 0 4 -7
4 -15z m135 -65 c23 -2 19 -4 -19 -11 -50 -8 -66 -5 -66 11 0 5 12 7 28 6 15
-2 41 -5 57 -6z m-86 -26 c8 -19 16 -24 29 -19 13 5 14 3 6 -5 -15 -15 -51 6
-57 32 -8 27 8 22 22 -8z m109 -12 c-16 -2 -28 -8 -28 -14 0 -6 -6 -6 -15 2
-23 19 -10 27 32 21 33 -5 34 -6 11 -9z m202 -32 c-24 -8 -24 -8 -2 -9 l22 -1
-20 -20 c-22 -22 -40 -26 -40 -10 0 6 4 10 9 10 5 0 7 9 4 20 -4 17 -1 20 23
19 l29 -1 -25 -8z m-105 -11 c4 -6 14 -8 22 -5 8 3 11 1 8 -4 -6 -10 23 -44
46 -53 8 -3 1 -6 -14 -6 -16 -1 -26 3 -22 9 10 17 -25 11 -53 -8 -41 -28 -56
-31 -77 -15 -19 14 -19 15 5 13 44 -4 61 0 55 10 -7 11 -84 14 -109 4 -9 -3
-12 -12 -9 -22 4 -13 3 -14 -6 -6 -6 6 -9 18 -5 27 6 16 55 24 116 19 9 -1 22
5 28 14 11 12 10 13 -4 8 -16 -6 -22 6 -9 19 9 10 21 8 28 -4z m65 -9 c0 -5
-4 -10 -10 -10 -5 0 -10 5 -10 10 0 6 5 10 10 10 6 0 10 -4 10 -10z m-170 -10
c-20 -13 -43 -13 -35 0 3 6 16 10 28 10 18 0 19 -2 7 -10z m296 -71 c3 -5 -4
-9 -15 -9 -12 0 -21 5 -21 10 0 17 -37 11 -44 -7 -5 -11 -10 -13 -14 -7 -4 6
-14 14 -22 17 -9 3 -4 6 12 6 15 1 29 5 33 10 6 11 61 -5 71 -20z m82 2 c10
-6 8 -10 -8 -14 -25 -6 -50 1 -50 14 0 11 41 11 58 0z m47 -50 c-3 -6 -11 -11
-17 -11 -6 0 -6 6 2 15 14 17 26 13 15 -4z m82 3 c-3 -3 -12 -4 -19 -1 -8 3
-5 6 6 6 11 1 17 -2 13 -5z m-50 -20 c-3 -3 -12 -4 -19 -1 -8 3 -5 6 6 6 11 1
17 -2 13 -5z m130 -30 c-3 -3 -12 -4 -19 -1 -8 3 -5 6 6 6 11 1 17 -2 13 -5z"/>
<path d="M904 3498 c-3 -4 36 -8 85 -8 57 0 91 4 91 10 0 13 -168 11 -176 -2z"/>
<path d="M1110 3500 c19 -13 30 -13 30 0 0 6 -10 10 -22 10 -19 0 -20 -2 -8
-10z"/>
<path d="M2520 3503 c-45 -8 -42 -20 5 -20 36 0 43 3 34 14 -6 7 -12 12 -13
12 0 -1 -12 -4 -26 -6z"/>
<path d="M2608 3493 c7 -3 16 -2 19 1 4 3 -2 6 -13 5 -11 0 -14 -3 -6 -6z"/>
<path d="M4890 3480 c-20 -12 -5 -24 16 -12 9 5 12 12 7 15 -5 3 -15 2 -23 -3z"/>
<path d="M4967 3483 c-12 -11 -8 -23 8 -23 8 0 15 7 15 15 0 16 -12 20 -23 8z"/>
<path d="M4350 3450 c0 -5 5 -10 10 -10 6 0 10 5 10 10 0 6 -4 10 -10 10 -5 0
-10 -4 -10 -10z"/>
<path d="M4957 3430 c3 -12 6 -19 7 -18 1 2 8 11 15 21 12 15 11 17 -7 17 -15
0 -19 -5 -15 -20z"/>
<path d="M1172 3432 c-9 -3 -8 -11 3 -32 8 -15 11 -30 8 -34 -4 -3 3 -6 15 -6
15 0 22 6 22 20 0 12 7 20 16 20 9 0 14 7 12 17 -3 16 -47 25 -76 15z"/>
<path d="M810 3419 c0 -5 5 -7 10 -4 6 3 10 8 10 11 0 2 -4 4 -10 4 -5 0 -10
-5 -10 -11z"/>
<path d="M865 3420 c3 -5 10 -10 16 -10 5 0 9 5 9 10 0 6 -7 10 -16 10 -8 0
-12 -4 -9 -10z"/>
<path d="M1297 3423 c-4 -3 -7 -18 -7 -32 0 -24 1 -24 15 -5 10 14 14 15 15 5
0 -12 3 -12 12 -3 7 7 21 12 33 11 15 0 12 -4 -12 -15 -18 -8 -33 -18 -33 -23
0 -13 26 -32 33 -24 4 3 7 1 7 -5 0 -7 9 -3 19 7 12 12 19 33 19 55 l0 36 -47
0 c-26 0 -51 -3 -54 -7z"/>
<path d="M631 3374 c4 -27 8 -69 9 -94 l2 -45 13 30 c7 17 9 32 4 36 -12 7 -5
72 9 77 6 2 24 -4 41 -13 29 -15 31 -15 31 4 0 11 6 21 13 24 24 8 -1 18 -65
24 l-65 6 8 -49z"/>
<path d="M1998 3413 c7 -3 16 -2 19 1 4 3 -2 6 -13 5 -11 0 -14 -3 -6 -6z"/>
<path d="M4900 3410 c0 -5 5 -10 11 -10 5 0 7 5 4 10 -3 6 -8 10 -11 10 -2 0
-4 -4 -4 -10z"/>
<path d="M4357 3395 c-4 -8 -2 -17 3 -20 6 -4 10 3 10 14 0 25 -6 27 -13 6z"/>
<path d="M4720 3395 c0 -8 7 -15 16 -15 14 0 14 3 4 15 -7 8 -14 15 -16 15 -2
0 -4 -7 -4 -15z"/>
<path d="M848 3383 c6 -2 18 -2 25 0 6 3 1 5 -13 5 -14 0 -19 -2 -12 -5z"/>
<path d="M807 3374 c-8 -8 3 -34 14 -34 5 0 9 9 9 20 0 19 -11 26 -23 14z"/>
<path d="M4587 3343 c-10 -10 -8 -33 2 -33 6 0 9 9 8 20 -1 23 -1 22 -10 13z"/>
<path d="M1307 3313 c-11 -3 -16 -10 -13 -20 3 -8 6 -28 6 -45 0 -27 2 -29 17
-17 11 10 14 10 9 2 -4 -7 -3 -13 2 -13 11 0 19 44 14 78 -2 12 -6 21 -10 21
-4 -1 -15 -3 -25 -6z"/>
<path d="M1860 3310 c0 -5 7 -10 16 -10 8 0 12 5 9 10 -3 6 -10 10 -16 10 -5
0 -9 -4 -9 -10z"/>
<path d="M2678 3313 c7 -3 16 -2 19 1 4 3 -2 6 -13 5 -11 0 -14 -3 -6 -6z"/>
<path d="M2010 3300 c0 -5 5 -10 10 -10 6 0 10 5 10 10 0 6 -4 10 -10 10 -5 0
-10 -4 -10 -10z"/>
<path d="M2270 3301 c0 -6 4 -13 10 -16 6 -3 7 1 4 9 -7 18 -14 21 -14 7z"/>
<path d="M4645 3300 c3 -5 10 -10 16 -10 5 0 9 5 9 10 0 6 -7 10 -16 10 -8 0
-12 -4 -9 -10z"/>
<path d="M4036 3293 c-3 -3 6 -12 21 -20 34 -17 41 -10 9 10 -13 9 -26 13 -30
10z"/>
<path d="M2415 3280 c3 -5 11 -10 16 -10 6 0 7 5 4 10 -3 6 -11 10 -16 10 -6
0 -7 -4 -4 -10z"/>
<path d="M4470 3280 c-13 -8 -12 -10 3 -10 9 0 17 5 17 10 0 12 -1 12 -20 0z"/>
<path d="M1377 3274 c-4 -4 -2 -13 4 -21 9 -10 8 -17 -1 -28 -10 -12 -9 -15 6
-15 15 0 19 7 18 32 -1 31 -13 45 -27 32z"/>
<path d="M4334 3258 c-4 -13 -12 -26 -18 -30 -6 -5 -2 -8 10 -8 19 0 33 22 34
53 0 17 -19 5 -26 -15z"/>
<path d="M4410 3265 c0 -13 4 -14 20 -5 11 6 20 13 20 15 0 3 -9 5 -20 5 -11
0 -20 -7 -20 -15z"/>
<path d="M2059 3251 c-15 -17 -14 -18 15 -18 17 0 23 2 14 4 -10 3 -15 10 -11
19 7 18 2 17 -18 -5z"/>
<path d="M2464 3263 c7 -7 77 -5 85 2 2 3 -17 5 -44 5 -27 0 -45 -3 -41 -7z"/>
<path d="M4157 3254 c3 -7 9 -14 14 -14 14 0 10 17 -5 23 -10 4 -13 1 -9 -9z"/>
<path d="M2683 3253 c9 -2 23 -2 30 0 6 3 -1 5 -18 5 -16 0 -22 -2 -12 -5z"/>
<path d="M2895 3250 c-3 -5 1 -10 9 -10 8 0 18 5 21 10 3 6 -1 10 -9 10 -8 0
-18 -4 -21 -10z"/>
<path d="M4230 3249 c0 -5 5 -7 10 -4 6 3 10 8 10 11 0 2 -4 4 -10 4 -5 0 -10
-5 -10 -11z"/>
<path d="M2760 3229 c0 -5 5 -7 10 -4 6 3 10 8 10 11 0 2 -4 4 -10 4 -5 0 -10
-5 -10 -11z"/>
<path d="M4097 3226 c-3 -7 -20 -17 -39 -21 -29 -7 -30 -9 -10 -12 24 -5 72
20 72 37 0 15 -17 12 -23 -4z"/>
<path d="M2355 3220 c-3 -5 1 -10 10 -10 9 0 13 5 10 10 -3 6 -8 10 -10 10 -2
0 -7 -4 -10 -10z"/>
<path d="M3496 3221 c-8 -13 29 -20 45 -9 11 8 10 9 -3 4 -10 -3 -18 -1 -18 4
0 12 -17 13 -24 1z"/>
<path d="M3720 3219 c0 -5 5 -7 10 -4 6 3 10 8 10 11 0 2 -4 4 -10 4 -5 0 -10
-5 -10 -11z"/>
<path d="M2585 3210 c3 -5 8 -10 11 -10 2 0 4 5 4 10 0 6 -5 10 -11 10 -5 0
-7 -4 -4 -10z"/>
<path d="M3398 3213 c7 -3 16 -2 19 1 4 3 -2 6 -13 5 -11 0 -14 -3 -6 -6z"/>
<path d="M2482 3201 c-7 -4 -25 -6 -40 -3 -21 3 -24 2 -16 -7 9 -9 27 -9 80 3
60 12 64 14 29 15 -22 0 -46 -3 -53 -8z"/>
<path d="M4160 3201 c0 -5 -3 -18 -6 -28 -4 -14 -4 -15 4 -4 5 7 15 10 22 6 9
-6 9 -3 1 14 -12 22 -21 27 -21 12z"/>
<path d="M4207 3195 c-4 -8 -2 -17 3 -20 6 -4 10 1 10 9 0 9 7 16 15 16 9 0
12 -6 9 -15 -7 -17 31 -22 41 -5 3 6 22 10 41 10 67 0 33 16 -40 18 -57 2 -75
-1 -79 -13z"/>
<path d="M546 3191 c-7 -11 22 -23 35 -15 5 3 7 10 4 15 -8 12 -32 12 -39 0z"/>
<path d="M1290 3191 c0 -23 14 -41 31 -41 23 0 26 35 3 44 -22 9 -34 7 -34 -3z"/>
<path d="M4100 3190 c-8 -5 -10 -10 -5 -10 6 0 17 5 25 10 8 5 11 10 5 10 -5
0 -17 -5 -25 -10z"/>
<path d="M1356 3173 c-8 -20 17 -43 47 -43 13 0 18 6 15 23 -2 15 -9 21 -20
19 -10 -2 -18 2 -18 8 0 16 -17 12 -24 -7z"/>
<path d="M2135 3180 c-3 -5 1 -10 10 -10 9 0 13 5 10 10 -3 6 -8 10 -10 10 -2
0 -7 -4 -10 -10z"/>
<path d="M2190 3180 c0 -8 35 -20 63 -20 9 0 17 7 17 17 0 12 -3 14 -11 6 -7
-7 -21 -8 -40 -3 -16 5 -29 5 -29 0z"/>
<path d="M2310 3175 c0 -8 -7 -15 -16 -15 -8 0 -12 -4 -9 -10 3 -5 19 -8 36
-6 33 4 52 16 26 16 -9 0 -17 7 -17 15 0 8 -4 15 -10 15 -5 0 -10 -7 -10 -15z"/>
<path d="M2614 3180 c-5 -5 -31 -10 -57 -11 -32 -2 -47 -7 -47 -16 0 -7 7 -13
15 -13 8 0 15 4 15 10 0 5 6 7 13 4 7 -2 33 2 59 10 25 7 60 12 77 10 17 -2
31 1 31 6 0 13 -93 13 -106 0z"/>
<path d="M2898 3173 c7 -3 16 -2 19 1 4 3 -2 6 -13 5 -11 0 -14 -3 -6 -6z"/>
<path d="M3478 3173 c7 -3 16 -2 19 1 4 3 -2 6 -13 5 -11 0 -14 -3 -6 -6z"/>
<path d="M714 3141 c-8 -38 -44 -50 -44 -16 0 13 -4 26 -9 30 -15 8 -24 -14
-12 -28 5 -7 7 -23 4 -36 -6 -22 -5 -22 18 -10 13 7 31 13 39 14 46 4 46 5 42
40 -5 43 -30 47 -38 6z"/>
<path d="M2480 3160 c-13 -8 -12 -10 3 -10 9 0 17 5 17 10 0 12 -1 12 -20 0z"/>
<path d="M2722 3157 c-17 -20 -6 -24 43 -17 30 5 36 8 23 14 -10 5 -24 6 -32
3 -8 -3 -16 -1 -18 5 -2 6 -9 4 -16 -5z"/>
<path d="M2850 3160 c0 -5 7 -10 15 -10 8 0 15 5 15 10 0 6 -7 10 -15 10 -8 0
-15 -4 -15 -10z"/>
<path d="M3398 3163 c7 -3 16 -2 19 1 4 3 -2 6 -13 5 -11 0 -14 -3 -6 -6z"/>
<path d="M3790 3160 c0 -12 47 -13 53 -2 3 4 -8 8 -24 9 -16 1 -29 -2 -29 -7z"/>
<path d="M4290 3160 c0 -5 -8 -10 -17 -10 -13 0 -14 -3 -5 -12 8 -8 15 -8 27
2 17 14 20 30 5 30 -5 0 -10 -4 -10 -10z"/>
<path d="M2391 3146 c13 -7 34 -10 47 -8 33 6 18 16 -30 18 -38 2 -39 1 -17
-10z"/>
<path d="M3892 3139 c-9 -11 -26 -25 -37 -29 -18 -8 -17 -9 7 -9 15 -1 30 4
33 9 4 6 16 8 28 4 20 -6 21 -5 7 11 -14 17 -13 18 20 11 19 -3 37 -11 38 -16
2 -6 15 -10 28 -10 17 0 24 6 24 20 0 11 -2 20 -4 20 -2 0 -11 3 -19 6 -12 4
-14 0 -10 -18 l6 -23 -22 23 c-28 28 -75 29 -99 1z"/>
<path d="M4065 3142 c3 -8 5 -16 5 -18 0 -11 16 -2 27 15 10 17 9 19 -13 17
-16 -1 -22 -6 -19 -14z"/>
<path d="M4192 3144 c-9 -10 -24 -13 -47 -8 -19 3 -35 1 -39 -5 -7 -12 24 -16
79 -12 36 2 50 14 33 28 -9 8 -17 7 -26 -3z"/>
<path d="M2623 3138 c-35 -5 -63 -14 -63 -20 0 -6 6 -8 13 -5 8 3 39 8 70 12
32 4 57 11 57 16 0 5 -3 8 -7 8 -5 -1 -36 -6 -70 -11z"/>
<path d="M4321 3136 c-14 -8 -19 -16 -13 -20 9 -5 42 18 42 30 0 6 -2 5 -29
-10z"/>
<path d="M2915 3120 c-3 -5 -1 -10 4 -10 6 0 11 5 11 10 0 6 -2 10 -4 10 -3 0
-8 -4 -11 -10z"/>
<path d="M2995 3120 c4 -6 11 -8 16 -5 14 9 11 15 -7 15 -8 0 -12 -5 -9 -10z"/>
<path d="M3670 3120 c-19 -12 5 -22 35 -14 14 3 25 10 25 14 0 10 -44 10 -60
0z"/>
<path d="M3773 3121 c-17 -5 -20 -10 -13 -21 7 -11 12 -12 18 -4 4 7 16 13 27
16 15 3 16 5 5 9 -8 3 -25 3 -37 0z"/>
<path d="M857 3114 c-10 -11 3 -24 24 -24 10 0 19 -4 19 -10 0 -5 13 -10 29
-10 17 0 33 -5 37 -11 3 -6 15 -8 27 -5 12 3 32 -3 48 -15 17 -12 30 -15 34
-9 7 11 57 2 66 -12 4 -6 17 -9 30 -7 34 3 80 -11 73 -23 -4 -7 11 -8 45 -3
43 6 51 4 51 -9 0 -9 -5 -16 -12 -16 -6 0 -9 -2 -7 -4 2 -2 24 0 49 3 37 6 53
3 90 -17 28 -15 46 -20 48 -13 2 6 19 11 38 11 28 0 34 -4 34 -21 0 -16 3 -19
13 -11 13 11 85 6 102 -7 19 -16 71 -22 98 -12 19 7 27 7 27 0 0 -6 -9 -13
-20 -16 -38 -10 -20 -25 25 -21 25 2 45 0 45 -4 0 -4 16 -5 35 -3 23 3 35 1
35 -7 0 -9 3 -9 11 -1 15 15 3 33 -21 33 -45 0 -70 33 -35 46 8 4 12 10 10 15
-3 5 -23 1 -45 -7 -60 -24 -254 0 -267 33 -4 9 -25 13 -72 13 -76 1 -159 20
-171 40 -5 9 -27 13 -66 11 -60 -2 -113 13 -127 36 -6 9 -20 11 -48 7 -44 -7
-129 13 -129 30 0 7 -15 12 -37 12 -21 -1 -47 3 -59 7 -11 4 -23 4 -27 1z"/>
<path d="M3185 3110 c3 -5 8 -10 11 -10 2 0 4 5 4 10 0 6 -5 10 -11 10 -5 0
-7 -4 -4 -10z"/>
<path d="M3370 3109 c0 -5 5 -7 10 -4 6 3 10 8 10 11 0 2 -4 4 -10 4 -5 0 -10
-5 -10 -11z"/>
<path d="M3546 3103 c8 -8 24 -11 43 -7 42 9 29 23 -18 21 -31 -1 -36 -4 -25
-14z"/>
<path d="M2498 3103 c6 -2 18 -2 25 0 6 3 1 5 -13 5 -14 0 -19 -2 -12 -5z"/>
<path d="M2769 3105 c-4 -3 -87 -12 -143 -15 -5 0 -3 -6 4 -14 8 -11 25 -13
63 -9 29 3 57 10 63 14 6 5 35 12 65 15 72 8 75 14 7 14 -30 0 -57 -2 -59 -5z"/>
<path d="M3470 3100 c0 -5 5 -10 11 -10 5 0 7 5 4 10 -3 6 -8 10 -11 10 -2 0
-4 -4 -4 -10z"/>
<path d="M4071 3099 c8 -5 30 -9 49 -9 24 0 31 3 21 9 -8 5 -30 9 -49 9 -24 0
-31 -3 -21 -9z"/>
<path d="M3968 3093 c7 -3 16 -2 19 1 4 3 -2 6 -13 5 -11 0 -14 -3 -6 -6z"/>
<path d="M1298 3083 c7 -3 16 -2 19 1 4 3 -2 6 -13 5 -11 0 -14 -3 -6 -6z"/>
<path d="M1348 3083 c7 -3 16 -2 19 1 4 3 -2 6 -13 5 -11 0 -14 -3 -6 -6z"/>
<path d="M3210 3079 c0 -5 5 -7 10 -4 6 3 10 8 10 11 0 2 -4 4 -10 4 -5 0 -10
-5 -10 -11z"/>
<path d="M3390 3078 c0 -11 28 -10 35 1 3 6 -4 9 -15 8 -11 -1 -20 -5 -20 -9z"/>
<path d="M4023 3074 c30 -16 44 -14 32 5 -3 6 -18 11 -33 11 l-27 -1 28 -15z"/>
<path d="M1223 3073 c9 -2 25 -2 35 0 9 3 1 5 -18 5 -19 0 -27 -2 -17 -5z"/>
<path d="M2888 3073 c7 -3 16 -2 19 1 4 3 -2 6 -13 5 -11 0 -14 -3 -6 -6z"/>
<path d="M3000 3069 c0 -5 5 -7 10 -4 6 3 10 8 10 11 0 2 -4 4 -10 4 -5 0 -10
-5 -10 -11z"/>
<path d="M3526 3065 c6 -14 3 -16 -12 -11 -22 7 -84 -37 -71 -51 5 -4 15 1 23
11 8 11 20 21 28 22 7 1 23 5 34 8 11 4 23 2 27 -4 3 -5 15 -10 26 -10 10 0
24 -9 31 -20 14 -22 29 -27 26 -8 -2 7 8 13 23 13 15 0 33 6 41 12 10 9 19 7
37 -6 17 -13 20 -20 11 -26 -6 -4 -16 -3 -22 3 -12 12 -48 3 -48 -12 0 -13 11
-14 77 -2 24 4 47 15 53 24 8 15 11 15 20 2 7 -11 10 -11 10 -2 0 7 5 10 10 7
6 -3 10 0 10 9 0 8 6 17 13 19 7 3 5 6 -5 6 -10 1 -18 -3 -18 -8 0 -4 -11 -6
-25 -3 -14 2 -32 -2 -41 -9 -10 -8 -18 -9 -22 -3 -4 6 -15 13 -25 17 -10 4
-16 11 -12 16 3 6 12 8 20 4 8 -3 15 0 15 6 0 6 -12 11 -28 11 -19 0 -30 -7
-37 -22 -6 -14 -17 -22 -28 -20 -10 2 -26 -3 -35 -10 -9 -7 -13 -8 -9 -2 4 7
-5 14 -24 18 -22 4 -30 10 -25 21 6 17 -9 21 -19 5 -5 -8 -11 -7 -21 1 -12 10
-13 9 -8 -6z"/>
<path d="M3645 3070 c-3 -5 1 -10 10 -10 9 0 13 5 10 10 -3 6 -8 10 -10 10 -2
0 -7 -4 -10 -10z"/>
<path d="M2470 3063 c8 -3 19 -11 23 -17 6 -7 7 -6 4 4 -2 8 -12 16 -23 17
-13 2 -15 1 -4 -4z"/>
<path d="M2527 3059 c7 -7 26 -13 43 -14 34 -3 60 -21 60 -42 0 -8 5 -11 10
-8 6 4 16 2 23 -3 20 -16 140 2 158 24 11 14 49 20 49 8 0 -4 -8 -13 -17 -20
-16 -12 -16 -13 -1 -14 9 0 18 6 21 13 4 10 7 10 18 0 15 -15 29 -17 29 -5 0
5 -10 14 -22 20 -21 11 -19 12 16 9 31 -2 39 2 42 16 2 17 -3 18 -69 12 -40
-4 -76 -11 -82 -15 -15 -12 -125 -28 -149 -22 -11 3 -31 16 -43 29 -15 16 -33
23 -60 23 -28 0 -34 -3 -26 -11z"/>
<path d="M3033 3063 c-24 -9 -13 -19 21 -19 20 0 32 4 29 10 -4 5 3 7 15 4 12
-4 20 -2 16 3 -5 9 -60 11 -81 2z"/>
<path d="M3424 3056 c-3 -9 -12 -16 -20 -16 -8 0 -14 -7 -14 -15 0 -21 11 -18
38 9 14 15 19 27 12 31 -5 3 -13 -1 -16 -9z"/>
<path d="M1978 3053 c7 -3 16 -2 19 1 4 3 -2 6 -13 5 -11 0 -14 -3 -6 -6z"/>
<path d="M3140 3050 c0 -5 5 -10 11 -10 5 0 7 5 4 10 -3 6 -8 10 -11 10 -2 0
-4 -4 -4 -10z"/>
<path d="M3175 3049 c-10 -15 3 -25 16 -12 7 7 7 13 1 17 -6 3 -14 1 -17 -5z"/>
<path d="M3936 3039 c-16 -5 -33 -6 -37 -4 -16 11 -16 -25 1 -40 14 -13 23
-14 39 -6 11 6 33 11 49 11 28 0 87 24 96 39 3 4 -8 5 -25 3 -16 -2 -32 -8
-35 -13 -3 -5 -12 -9 -20 -9 -8 0 -13 4 -10 9 8 13 -25 19 -58 10z"/>
<path d="M1423 3033 c9 -2 25 -2 35 0 9 3 1 5 -18 5 -19 0 -27 -2 -17 -5z"/>
<path d="M3203 3027 c-44 -13 -42 -31 2 -24 40 7 46 1 13 -13 l-23 -9 22 0
c12 -1 34 10 48 24 30 31 32 39 7 26 -11 -6 -23 -6 -28 -2 -5 4 -24 3 -41 -2z"/>
<path d="M3340 3030 c0 -13 11 -13 30 0 12 8 11 10 -7 10 -13 0 -23 -4 -23
-10z"/>
<path d="M3306 3021 c-4 -7 -5 -15 -2 -18 9 -9 19 4 14 18 -4 11 -6 11 -12 0z"/>
<path d="M3525 3020 c-3 -6 1 -13 10 -16 19 -8 30 0 20 15 -8 14 -22 14 -30 1z"/>
<path d="M2290 3010 c0 -5 7 -10 15 -10 8 0 15 5 15 10 0 6 -7 10 -15 10 -8 0
-15 -4 -15 -10z"/>
<path d="M1947 2999 c8 -8 16 -8 30 0 16 9 14 10 -11 11 -22 0 -27 -3 -19 -11z"/>
<path d="M2580 3000 c0 -5 7 -10 15 -10 8 0 15 5 15 10 0 6 -7 10 -15 10 -8 0
-15 -4 -15 -10z"/>
<path d="M1640 2990 c-24 -8 -23 -8 8 -9 17 -1 32 4 32 9 0 11 -5 11 -40 0z"/>
<path d="M2385 2990 c3 -5 14 -10 23 -10 15 0 15 2 2 10 -20 13 -33 13 -25 0z"/>
<path d="M2475 2990 c3 -5 10 -10 16 -10 5 0 9 5 9 10 0 6 -7 10 -16 10 -8 0
-12 -4 -9 -10z"/>
<path d="M2976 2991 c-9 -14 -93 -24 -189 -22 -84 1 -87 0 -75 -18 13 -22 57
-30 141 -25 39 2 55 0 51 -8 -5 -7 5 -9 32 -3 66 12 87 16 134 21 25 2 55 10
67 16 l23 11 -23 13 c-42 25 -49 27 -56 16 -4 -7 -19 -8 -46 -2 -50 12 -53 12
-59 1z m154 -26 c0 -12 -19 -12 -23 0 -4 9 -1 12 9 8 7 -3 14 -7 14 -8z m-50
-5 c-8 -5 -19 -10 -25 -10 -5 0 -3 5 5 10 8 5 20 10 25 10 6 0 3 -5 -5 -10z"/>
<path d="M3365 2990 c-3 -5 1 -10 10 -10 9 0 13 5 10 10 -3 6 -8 10 -10 10 -2
0 -7 -4 -10 -10z"/>
<path d="M2435 2981 c-3 -5 -1 -12 4 -15 5 -3 11 1 15 9 6 16 -9 21 -19 6z"/>
<path d="M3563 2983 c9 -2 23 -2 30 0 6 3 -1 5 -18 5 -16 0 -22 -2 -12 -5z"/>
<path d="M3245 2970 c-3 -5 3 -10 14 -10 11 0 23 5 26 10 3 6 -3 10 -14 10
-11 0 -23 -4 -26 -10z"/>
<path d="M2583 2953 c9 -2 25 -2 35 0 9 3 1 5 -18 5 -19 0 -27 -2 -17 -5z"/>
<path d="M3645 2950 c-3 -5 -1 -10 4 -10 6 0 11 5 11 10 0 6 -2 10 -4 10 -3 0
-8 -4 -11 -10z"/>
<path d="M4028 2933 c6 -2 18 -2 25 0 6 3 1 5 -13 5 -14 0 -19 -2 -12 -5z"/>
<path d="M3030 2920 c0 -5 5 -10 10 -10 6 0 10 5 10 10 0 6 -4 10 -10 10 -5 0
-10 -4 -10 -10z"/>
<path d="M2840 2900 c0 -5 5 -10 10 -10 6 0 10 5 10 10 0 6 -4 10 -10 10 -5 0
-10 -4 -10 -10z"/>
<path d="M2570 2880 c0 -5 7 -10 16 -10 8 0 12 5 9 10 -3 6 -10 10 -16 10 -5
0 -9 -4 -9 -10z"/>
<path d="M2290 2859 c0 -5 14 -9 32 -9 36 0 32 10 -6 14 -14 2 -26 -1 -26 -5z"/>
<path d="M1970 2850 c0 -5 7 -10 16 -10 8 0 12 5 9 10 -3 6 -10 10 -16 10 -5
0 -9 -4 -9 -10z"/>
<path d="M3388 2853 c6 -2 18 -2 25 0 6 3 1 5 -13 5 -14 0 -19 -2 -12 -5z"/>
<path d="M2010 2838 c0 -18 60 -34 123 -33 67 1 97 -11 82 -35 -9 -14 18 -13
33 2 9 9 12 9 12 -1 0 -8 7 -10 20 -6 12 4 20 2 20 -5 0 -6 6 -10 13 -7 14 4
16 32 2 33 -5 0 -31 4 -57 8 -42 7 -46 10 -38 26 6 10 20 20 32 22 13 2 -37 4
-109 3 -73 0 -133 -3 -133 -7z"/>
<path d="M3033 2813 c-13 -2 -23 -9 -23 -14 0 -5 -6 -9 -14 -9 -8 0 -18 -5
-22 -11 -4 -8 3 -9 24 -4 17 3 49 6 71 7 23 0 41 5 41 10 0 5 -4 7 -9 4 -5 -3
-14 1 -21 9 -7 8 -15 14 -19 14 -3 -1 -16 -4 -28 -6z"/>
<path d="M3310 2810 c0 -5 5 -10 10 -10 6 0 10 5 10 10 0 6 -4 10 -10 10 -5 0
-10 -4 -10 -10z"/>
<path d="M8 2793 c7 -3 16 -2 19 1 4 3 -2 6 -13 5 -11 0 -14 -3 -6 -6z"/>
<path d="M2715 2793 c-11 -3 -25 -11 -30 -18 -17 -21 -228 -30 -287 -12 -50
16 -60 14 -51 -9 4 -11 9 -12 18 -4 10 8 22 6 45 -9 18 -11 39 -17 46 -14 10
3 12 0 8 -10 -7 -19 22 -27 56 -15 14 5 48 11 77 12 29 2 58 10 67 18 14 15
50 21 210 34 60 5 74 9 57 16 -13 4 -26 6 -29 4 -4 -2 -40 -7 -79 -10 -62 -5
-73 -4 -73 9 0 16 -1 16 -35 8z"/>
<path d="M3163 2793 c9 -2 23 -2 30 0 6 3 -1 5 -18 5 -16 0 -22 -2 -12 -5z"/>
<path d="M3228 2793 c6 -2 18 -2 25 0 6 3 1 5 -13 5 -14 0 -19 -2 -12 -5z"/>
<path d="M30 2713 c-14 -23 -18 -39 -11 -41 6 -2 11 -9 11 -16 0 -8 19 -26 42
-42 24 -16 52 -39 63 -51 15 -17 26 -21 44 -16 l25 6 -23 9 c-26 9 -19 28 12
29 18 1 19 2 4 6 -12 3 -15 8 -8 16 21 27 -45 76 -107 80 -54 3 -53 13 1 25
24 6 32 10 19 11 -13 1 -20 6 -17 11 3 6 -3 10 -13 10 -12 0 -29 -14 -42 -37z"/>
<path d="M168 2723 c7 -3 16 -2 19 1 4 3 -2 6 -13 5 -11 0 -14 -3 -6 -6z"/>
<path d="M3583 2713 c-7 -2 -13 -12 -13 -20 0 -13 -11 -15 -60 -11 -33 2 -60
1 -60 -3 0 -4 -22 -7 -48 -7 -27 0 -63 -3 -80 -7 -25 -5 -32 -3 -32 9 0 25
-60 21 -67 -4 -5 -17 -14 -20 -64 -20 -32 0 -93 -5 -135 -11 -59 -9 -78 -9
-84 0 -5 9 -9 8 -14 -4 -7 -20 0 -35 19 -35 7 0 15 -5 17 -11 6 -18 108 0 109
20 0 10 2 11 6 4 2 -8 22 -13 44 -13 30 0 39 4 40 18 0 10 3 12 6 5 6 -16 53
-17 53 -2 0 5 5 7 10 4 6 -4 17 -2 25 5 8 6 40 14 72 16 32 3 76 7 98 9 22 3
69 7 105 10 117 10 129 13 123 35 -5 20 -39 26 -70 13z"/>
<path d="M2643 2696 c9 -7 17 -21 17 -30 0 -23 17 -20 31 5 13 25 -1 39 -41
39 -23 -1 -24 -2 -7 -14z"/>
<path d="M2545 2690 c-3 -6 1 -7 9 -4 18 7 21 14 7 14 -6 0 -13 -4 -16 -10z"/>
<path d="M2710 2676 c0 -21 21 -31 31 -15 7 11 9 10 9 -3 0 -21 30 -24 48 -6
9 9 12 9 12 -4 0 -12 12 -15 55 -15 36 0 54 4 52 11 -2 6 -12 11 -23 12 -10 1
-26 4 -34 6 -22 8 -119 28 -136 28 -8 0 -14 -6 -14 -14z"/>
<path d="M0 2650 c0 -5 5 -10 11 -10 5 0 7 5 4 10 -3 6 -8 10 -11 10 -2 0 -4
-4 -4 -10z"/>
<path d="M0 2614 c0 -12 7 -24 15 -28 19 -7 19 5 0 30 -14 19 -14 19 -15 -2z"/>
<path d="M580 2601 c0 -5 14 -11 30 -13 32 -5 41 6 14 16 -23 9 -44 7 -44 -3z"/>
<path d="M4365 2590 c3 -5 8 -10 11 -10 2 0 4 5 4 10 0 6 -5 10 -11 10 -5 0
-7 -4 -4 -10z"/>
<path d="M658 2583 c7 -3 16 -2 19 1 4 3 -2 6 -13 5 -11 0 -14 -3 -6 -6z"/>
<path d="M3239 2588 c0 -2 -2 -13 -3 -25 -2 -18 2 -23 22 -23 14 0 31 8 38 18
12 15 13 14 14 -10 0 -21 5 -28 20 -28 11 0 20 5 20 10 0 6 5 10 10 10 6 0 10
-6 10 -14 0 -20 45 -17 58 5 10 16 6 19 -46 29 -31 6 -70 15 -86 21 -28 9 -55
12 -57 7z"/>
<path d="M4330 2575 c0 -15 -3 -16 -12 -7 -16 16 -59 16 -55 0 1 -9 -13 -13
-41 -14 -50 -2 -54 -4 -42 -24 7 -11 33 -15 105 -17 l95 -1 0 31 c0 16 -3 27
-7 24 -3 -4 -15 0 -25 10 -17 15 -18 15 -18 -2z"/>
<path d="M4441 2574 c0 -11 3 -14 6 -6 3 7 2 16 -1 19 -3 4 -6 -2 -5 -13z"/>
<path d="M4115 2570 c3 -5 8 -10 11 -10 2 0 4 5 4 10 0 6 -5 10 -11 10 -5 0
-7 -4 -4 -10z"/>
<path d="M13 2563 c-10 -4 -13 -226 -13 -1064 l0 -1059 2700 0 2700 0 -2 507
c-3 500 -3 508 -23 511 -11 1 -27 -2 -35 -8 -13 -9 -13 -11 0 -20 13 -9 13
-12 -4 -25 -10 -8 -24 -16 -30 -18 -8 -3 -6 -13 4 -32 12 -22 12 -29 2 -33 -7
-2 -20 -11 -29 -20 -18 -19 -43 -18 -121 4 -47 14 -54 14 -68 0 -18 -18 -36
-20 -50 -6 -11 11 -55 0 -109 -27 -16 -8 -61 -17 -99 -20 -39 -4 -81 -12 -94
-19 -23 -12 -63 -7 -93 12 -15 9 -86 15 -169 15 -36 -1 -75 4 -87 11 -17 8
-26 8 -37 -1 -9 -7 -32 -13 -53 -13 -21 0 -58 -4 -81 -9 -53 -12 -184 12 -223
40 -21 16 -29 17 -50 6 -37 -19 -129 -30 -129 -14 0 9 -24 11 -100 6 -77 -4
-108 -2 -130 9 -30 15 -69 18 -150 11 -25 -2 -76 0 -115 5 -38 4 -89 8 -113 7
-25 0 -63 9 -89 22 -35 17 -65 22 -137 23 -50 1 -98 6 -106 11 -8 6 -51 9 -95
8 -60 -2 -89 2 -120 16 -22 11 -58 23 -80 27 l-40 8 38 4 c20 2 37 7 37 13 0
5 0 12 0 16 0 4 -16 6 -35 4 -25 -2 -37 2 -41 13 -3 9 -17 16 -30 16 -15 0
-22 5 -18 13 3 8 -6 14 -28 15 -18 2 -37 7 -42 12 -6 6 -18 10 -27 10 -9 0
-19 6 -22 14 -9 23 -87 30 -121 12 -49 -25 -225 3 -234 37 -4 15 -11 18 -39
12 -19 -3 -40 -2 -46 3 -7 5 -55 15 -107 22 -81 10 -101 10 -138 -3 l-43 -15
-17 37 c-14 29 -23 37 -50 39 -30 3 -47 22 -19 22 6 0 4 5 -6 11 -10 6 -35 8
-58 4 -41 -7 -119 2 -119 14 0 4 23 8 52 9 29 1 57 7 63 13 7 7 -3 10 -35 9
-25 -1 -47 -1 -50 0 -3 1 -18 3 -35 5 -96 12 -183 29 -202 41 -12 8 -38 14
-56 14 -19 0 -40 6 -46 14 -7 9 -27 12 -61 9 -40 -3 -50 -1 -50 12 0 8 -6 15
-12 16 -7 0 -37 2 -66 2 -31 1 -56 7 -61 15 -5 9 -17 11 -36 6 l-29 -7 22 30
c20 28 25 30 69 25 44 -5 47 -4 34 11 -12 15 -10 17 22 17 20 0 39 5 42 10 4
6 -5 10 -19 10 -34 0 -33 16 1 25 32 8 53 23 53 37 0 6 -9 8 -21 5 -12 -3 -83
-1 -158 4 -196 14 -234 19 -246 29 -6 5 -56 15 -111 21 -140 16 -153 18 -132
30 9 5 43 13 75 19 32 5 73 12 91 16 20 4 38 2 48 -6 8 -8 45 -14 83 -15 53
-1 74 2 92 16 24 18 24 19 -43 19 -39 0 -68 4 -68 10 0 6 -6 10 -13 10 -7 0
-21 10 -31 21 -15 18 -15 23 -5 30 11 7 11 9 -1 9 -53 3 -146 12 -149 16 -11
11 54 22 111 19 61 -3 65 -2 60 17 -4 18 -12 19 -91 17 -47 -1 -104 3 -127 9
-23 7 -63 12 -90 11 -64 -1 -134 11 -134 22 0 12 160 11 238 -1 39 -7 69 -7
79 -1 13 7 6 11 -32 15 -28 4 -61 9 -75 12 -14 3 -41 8 -60 10 -19 3 -42 8
-50 11 -8 3 -22 5 -30 5 -17 -2 -47 14 -40 22 3 2 79 7 170 11 91 4 167 8 169
11 5 4 -86 7 -266 8 -75 1 -116 5 -124 14 -7 6 -24 13 -39 13 -17 1 -19 3 -7
6 9 2 15 9 12 14 -7 10 -32 11 -52 2z m216 -327 c8 -9 8 -16 2 -20 -5 -4 -13
0 -18 7 -4 8 -15 17 -23 20 -10 4 -8 6 6 6 12 1 27 -5 33 -13z m131 -26 c0 -5
-2 -10 -4 -10 -3 0 -8 5 -11 10 -3 6 -1 10 4 10 6 0 11 -4 11 -10z"/>
<path d="M600 2550 c-11 -7 2 -10 43 -10 36 0 56 4 52 10 -8 13 -75 13 -95 0z"/>
<path d="M748 2538 c9 -9 15 -9 24 0 9 9 7 12 -12 12 -19 0 -21 -3 -12 -12z"/>
<path d="M3447 2524 c-2 -13 -1 -24 2 -25 46 -6 50 -5 40 8 -9 10 -7 13 10 13
11 0 21 5 21 11 0 5 -4 8 -9 5 -5 -4 -20 -2 -34 3 -22 9 -25 7 -30 -15z"/>
<path d="M3530 2513 c0 -14 7 -19 27 -18 14 0 28 6 31 13 2 6 -3 12 -11 12 -9
0 -22 3 -31 6 -11 4 -16 0 -16 -13z"/>
<path d="M4419 2517 c-20 -15 -10 -41 17 -44 17 -2 20 2 16 27 -5 33 -9 35
-33 17z"/>
<path d="M3440 2473 c-19 -3 -39 -9 -45 -14 -7 -7 -1 -8 18 -4 20 5 27 3 27
-7 0 -12 68 -38 100 -38 15 0 12 39 -4 56 -14 14 -27 15 -96 7z"/>
<path d="M4540 2465 c-8 -9 -8 -15 -2 -15 12 0 26 19 19 26 -2 2 -10 -2 -17
-11z"/>
<path d="M4262 2459 c2 -6 8 -10 13 -10 5 0 11 4 13 10 2 6 -4 11 -13 11 -9 0
-15 -5 -13 -11z"/>
<path d="M970 2399 c0 -5 12 -9 27 -9 30 0 27 9 -6 15 -11 2 -21 0 -21 -6z"/>
<path d="M597 2343 c3 -7 21 -13 40 -13 43 0 35 16 -11 22 -24 3 -32 0 -29 -9z"/>
<path d="M695 2350 c-3 -5 3 -10 14 -10 11 0 23 5 26 10 3 6 -3 10 -14 10 -11
0 -23 -4 -26 -10z"/>
<path d="M925 2230 c3 -5 10 -10 16 -10 5 0 9 5 9 10 0 6 -7 10 -16 10 -8 0
-12 -4 -9 -10z"/>
<path d="M936 2202 c-7 -11 71 -28 81 -18 9 9 1 14 -38 21 -22 4 -39 3 -43 -3z"/>
<path d="M1015 2071 c3 -6 10 -9 15 -6 4 3 20 -1 34 -9 20 -10 38 -11 76 -3
27 5 50 13 50 16 0 4 -41 8 -91 10 -64 2 -89 -1 -84 -8z"/>
<path d="M1123 1926 c-9 -11 -4 -13 32 -8 32 3 48 0 60 -12 23 -23 36 -20 26
7 -7 18 -17 22 -57 24 -32 2 -53 -2 -61 -11z"/>
<path d="M1270 1876 c0 -15 29 -30 39 -20 3 4 0 9 -7 11 -6 3 -10 9 -6 14 3 5
-2 9 -10 9 -9 0 -16 -6 -16 -14z"/>
<path d="M1138 1873 c7 -3 16 -2 19 1 4 3 -2 6 -13 5 -11 0 -14 -3 -6 -6z"/>
<path d="M1700 1820 c-24 -8 -24 -8 7 -9 17 -1 35 4 38 9 7 11 -9 11 -45 0z"/>
<path d="M1958 1773 c7 -3 16 -2 19 1 4 3 -2 6 -13 5 -11 0 -14 -3 -6 -6z"/>
<path d="M1965 1670 c-3 -5 -2 -10 4 -10 5 0 13 5 16 10 3 6 2 10 -4 10 -5 0
-13 -4 -16 -10z"/>
<path d="M2210 1640 c0 -5 5 -10 10 -10 6 0 10 5 10 10 0 6 -4 10 -10 10 -5 0
-10 -4 -10 -10z"/>
<path d="M2490 1590 c-23 -7 -23 -8 -3 -9 12 -1 25 4 28 9 3 6 5 10 3 9 -2 -1
-14 -5 -28 -9z"/>
<path d="M2695 1434 c9 -9 19 -13 23 -10 3 4 0 11 -8 16 -24 15 -33 11 -15 -6z"/>
<path d="M2820 1436 c0 -2 9 -6 20 -9 11 -3 20 -1 20 4 0 5 -9 9 -20 9 -11 0
-20 -2 -20 -4z"/>
<path d="M2977 1423 c-12 -12 -7 -22 8 -17 8 4 15 10 15 15 0 11 -14 12 -23 2z"/>
</g>
</svg>
